<?xml version="1.0" encoding="UTF-8"?><svg id="a" xmlns="http://www.w3.org/2000/svg" width="32px" height="32px"  viewBox="0 0 32 32"><g id="b"><path d="M9.72,8.19s.09-.08.16-.06C8.55,3.9,11.75-.07,16.16.18s6.88,4.92,4.98,8.73c-2.06,4.14-7.66,4.6-10.42.9h-2.66v4.44l2.75.06v1.69h-2.75v5.12h3.81v-7.41s.09-.09.09-.09h1.62l4.41,3.69v-2.91c2.45-2.59,4.85-5.25,7.37-7.78v20.37c.11.03.13-.04.19-.09.94-.75,2.21-2.39,2.81-3.44,3.52-6.09,2.19-14.09-3.31-18.5v-1.91c.87.62,1.7,1.32,2.44,2.09,6.63,6.94,5.44,18.63-2.48,24.02-.2.14-.9.61-1.09.67-.07.02-.12-.04-.12-.06V10.62c-1.48,1.43-2.8,3.02-4.25,4.48v16.41c-.04.17-1.37.22-1.56.29v-12.34c-1.53-1.25-3-2.58-4.56-3.78v15.97s-.07.07-.1.08c-.15.05-1.57-.32-1.83-.4C2.53,28.76-2.09,18.93,1.27,10.23c1.12-2.89,3.14-5.41,5.67-7.17v1.84c0,.14-.31.26-.37.31C2.1,9.37.46,15.31,2.56,21.16c1.52,4.23,4.99,7.53,9.31,8.78v-7.09s-.09-.09-.09-.09h-5.34v-14.56h3.28ZM19.29,8.98c2.65-3.64-.89-8.52-5.16-7.01-2.94,1.04-3.92,4.71-1.96,7.15,1.78,2.21,5.46,2.15,7.13-.14Z" style="fill:#95563e;"/></g></svg>