
<svg xmlns="http://www.w3.org/2000/svg" version="1.1" xmlns:xlink="http://www.w3.org/1999/xlink" preserveAspectRatio="none" x="0px" y="0px" width="32px" height="32px" viewBox="0 0 32 32">
<defs>
<g id="___0_Layer0_0_FILL">
<path fill="#683925" stroke="none" d="
M 629.15 107.95
Q 521.2 0 368.55 0 215.9 0 107.95 107.95 0 215.9 0 368.55 0 521.2 107.95 629.15 215.9 737.1 368.55 737.1 521.2 737.1 629.15 629.15 737.1 521.2 737.1 368.55 737.1 215.9 629.15 107.95 Z"/>
</g>

<g id="Layer3_0_STROKES_1_FILL">
<path fill="#58595B" stroke="none" d="
M 602.8 643.95
Q 601.7345703125 644.2 600.65 644.4
L 599.05 644.7
Q 598.9873046875 644.73671875 598.9 644.75 597.0837890625 645.0935546875 595.25 645.4
L 591.15 646.1
Q 587.171484375 646.7361328125 583.25 647.25 582.76015625 647.316796875 582.25 647.35
L 581.2 647.5
Q 580.413671875 647.6021484375 579.6 647.7
L 576.45 648.05 585.45 660.4 585.5 660.45
Q 589.25 657.75 593.65 654.3
L 606.45 643.75
Q 606.880078125 643.4125 607.3 643.05
L 602.8 643.95
M 460.75 700.7
Q 460.149609375 701.218359375 459.55 701.7 459.001953125 702.1884765625 458.45 702.65
L 456.8 704
Q 456.126171875 704.5794921875 455.4 705.15 454.8337890625 705.6359375 454.2 706.1
L 447.5 711.35
Q 445.8728515625 712.6169921875 444.2 713.8
L 439.65 717.1 442.35 716.75
Q 443.113671875 716.6939453125 443.85 716.6
L 458.4 714.4
Q 459.6541015625 714.222265625 460.9 714 461.9396484375 713.8162109375 462.95 713.6
L 463.85 713.45 464.05 713.4 464.35 713.35 467.2 712.8 464.15 697.75 463.25 698.5
Q 462.8341796875 698.9099609375 462.4 699.3
L 460.75 700.7
M 366.5 717.25
Q 366.1265625 716.9779296875 365.7 716.7
L 364.35 715.75
Q 364.1970703125 715.642578125 364.05 715.5
L 362.85 714.65
Q 362.5751953125 714.4955078125 362.3 714.3 362.2767578125 714.2734375 362.25 714.25
L 362 714.1 362 714.1 361.6 713.8
Q 359.7107421875 712.4158203125 358.45 711.5
L 358.1 711.25
Q 357.7609375 710.99765625 357.4 710.75
L 355.15 709.05
Q 354.9484375 708.899609375 354.75 708.75 354.5603515625 708.6021484375 354.35 708.45
L 351.65 706.3
Q 351.307421875 706.0384765625 350.95 705.75
L 349.35 704.45
Q 348.6849609375 703.9361328125 348.05 703.4
L 342.9 699.1 340.2 714.25 352.6 716.2 353.05 716.2
Q 353.1498046875 716.2384765625 353.25 716.25
L 361.9 717.3
Q 362.8236328125 717.40078125 363.75 717.5
L 367.4 717.85 366.5 717.25
M 200.5 649.65
L 201.2 650.2
Q 201.933203125 650.8185546875 202.65 651.4 202.7013671875 651.4359375 202.75 651.45 203.0486328125 651.7146484375 203.35 651.95 204.0736328125 652.5279296875 204.8 653.1 205.1494140625 653.3759765625 205.5 653.65
L 205.85 653.95 206 654.05 206.25 654.2 208.2 655.75
Q 208.4544921875 655.945703125 208.7 656.15 208.81484375 656.2349609375 208.9 656.3
L 209.2 656.5 209.6 656.8 215.25 661.05 215.7 661.35
Q 216.505078125 661.93203125 217.3 662.5
L 220.35 664.65
Q 221.397265625 665.3806640625 222.45 666.1
L 231.1 653.45 230.2 653.35
Q 229.489453125 653.330859375 228.75 653.25 228.3783203125 653.2423828125 227.95 653.2 227.5396484375 653.16640625 227.1 653.1
L 224.6 652.9
Q 221.2982421875 652.592578125 218 652.2
L 217.25 652.1
Q 216.587890625 652.0359375 215.9 651.95
L 200.5 649.65
M 134.35 578.25
L 134.4 578.35 138.05 583.55
Q 138.1716796875 583.7267578125 138.3 583.9
L 139.65 585.75
Q 142.72890625 589.9845703125 145.95 594.1 147.18984375 595.6818359375 148.45 597.25 149.2951171875 598.3037109375 150.15 599.35
L 149.7 596.55 149.55 595.55 148 584.15
Q 147.962109375 583.808203125 147.9 583.45
L 147.35 578.05
Q 147.14921875 575.553125 146.95 573.2 146.9478515625 572.867578125 146.9 572.55
L 146.85 571.75
Q 146.810546875 570.90859375 146.75 570.05
L 146.7 569.15 134.05 577.85 134.35 578.25
M 98 455.9
L 93.1 450
Q 92.3919921875 449.096484375 91.65 448.15
L 82.4 435.9 86.2 462.5 86.2 462.5 101.3 459.7 99.6 457.8
Q 98.82109375 456.894140625 98 455.9
M 100.15 345.35
Q 100.349609375 345.178515625 100.5 345
L 85.35 342.45 85.35 342.45 84.25 349.6
Q 84.2224609375 349.812109375 84.2 350
L 83.25 357.05
Q 83.1974609375 357.498046875 83.15 357.9
L 82.3 365.25 82.3 365.35
Q 82.2353515625 366.2814453125 82.15 367.2
L 81.9 370 82.9 368.45
Q 83.10703125 368.18828125 83.3 367.9
L 83.55 367.5 83.75 367.2
Q 84.005859375 366.8796875 84.25 366.5 87.4025390625 361.914453125 90.95 357.1 93.6490234375 353.4623046875 96.45 349.9
L 100.15 345.35
M 149.4 204.5
Q 149.540625 203.68984375 149.65 202.85
L 150.05 200.85 141.95 211.15 141.9 211.25 141.45 211.85
Q 141.0162109375 212.45234375 140.55 213 139.936328125 213.88828125 139.3 214.75
L 133.45 223.05 146.15 231.7 146.2 230.75
Q 146.28046875 229.8388671875 146.35 228.9 146.4244140625 227.97578125 146.5 227.05
L 146.6 226.1
Q 146.84375 223.355078125 147.15 220.6 147.2712890625 219.5259765625 147.4 218.45
L 147.45 217.7
Q 147.668359375 216.2150390625 147.85 214.7
L 148.4 210.75
Q 148.57890625 209.653125 148.75 208.55
L 148.95 207.25
Q 149.1578125 205.9609375 149.35 204.65
L 149.4 204.5
M 205.5 146.25
Q 205.4244140625 146.3369140625 205.35 146.4
L 203.65 147.75
Q 203.1587890625 148.144921875 202.65 148.55 202.2984375 148.83515625 201.95 149.1
L 201.6 149.4
Q 200.9244140625 149.9486328125 200.25 150.5
L 214.75 148.6 215.15 148.55
Q 215.4107421875 148.5240234375 215.65 148.5
L 217.4 148.3
Q 218.521875 148.2220703125 219.6 148.1
L 222.25 147.9
Q 222.9099609375 147.8498046875 223.55 147.8
L 224.3 147.75
Q 226.46796875 147.6126953125 229.8 147.4
L 221.1 134.8 217.65 137.2
Q 217.1708984375 137.556640625 216.7 137.9
L 215.25 138.95
Q 214.431640625 139.5310546875 213.6 140.1
L 210.9 142.1 210.6 142.35
Q 210.283203125 142.6095703125 209.95 142.85 209.7375 143.025 209.5 143.2 208.7720703125 143.745703125 208.05 144.3 207.823828125 144.4732421875 207.6 144.65 207.125 145.025 206.65 145.4
L 205.7 146.15 205.5 146.25
M 339.95 85.8
Q 339.409765625 85.8935546875 338.85 86
L 337.9 86.15
Q 337.8875 86.175 337.85 86.15
L 333.75 86.95 332.45 87.25 335.5 102.3 336.45 101.4
Q 338.5740234375 99.4087890625 340.75 97.45
L 341.75 96.5
Q 342.5623046875 95.8392578125 343.35 95.15
L 343.6 94.9
Q 343.8662109375 94.6998046875 344.1 94.45 345.5921875 93.204296875 347.1 91.95
L 351.45 88.35
Q 352.83203125 87.228125 354.2 86.1 354.74140625 85.7220703125 355.25 85.3 356.13125 84.6419921875 357 83.95
L 358.15 83.1 355.6 83.4
Q 355.16171875 83.48359375 354.7 83.55
L 344.75 85
Q 343.9322265625 85.1158203125 343.1 85.25
L 339.95 85.8
M 440.15 82.95
Q 439.2755859375 82.85 438.4 82.75 437.95 82.7029296875 437.5 82.65
L 434.9 82.4 436.8 83.8
Q 437.18828125 84.061328125 437.55 84.3
L 437.45 84.25
Q 437.8412109375 84.5634765625 438.2 84.85
L 437.95 84.6
Q 438.4091796875 84.9669921875 438.85 85.3
L 443.45 88.8
Q 444.0865234375 89.2982421875 444.7 89.75
L 444.9 89.95
Q 445.373046875 90.2990234375 445.8 90.65
L 446.1 90.85
Q 446.4935546875 91.17890625 446.9 91.5
L 448.45 92.8
Q 448.8794921875 93.137109375 449.25 93.45
L 449.65 93.8
Q 450.6234375 94.59296875 451.55 95.35
L 451.55 95.4 452.75 96.4
Q 455.85 99 458.15 101.1
L 460.9 86 460.4 85.9 458.5 85.55
Q 457.3259765625 85.3484375 456.15 85.15
L 454.7 84.9
Q 453.653125 84.7548828125 452.6 84.6
L 448.4 84
Q 448.237890625 83.971875 448.05 83.95
L 447.85 83.9 445.9 83.65
Q 445.5130859375 83.599609375 445.1 83.55
L 444.5 83.45
Q 444.0884765625 83.4189453125 443.65 83.35 442.75 83.2625 441.85 83.15 441.65 83.1251953125 441.45 83.1 441.225390625 83.0732421875 441 83.05 440.5755859375 82.9974609375 440.15 82.95
M 584.7 138.9
L 573.85 131.4 565.35 144.15
Q 567.1548828125 144.215234375 568.95 144.3
L 587.4 145.8
Q 587.880859375 145.8525390625 588.3 145.9
L 595.05 146.8 584.7 138.9
M 657.3 563.1
L 657.3 565.65
Q 657.284765625 566.4365234375 657.25 567.2
L 657.15 572.3
Q 657.1369140625 572.6876953125 657.1 573.05
L 657.1 573.7
Q 656.955078125 577.355078125 656.7 581.05
L 656.3 586.85
Q 656.23125 587.5603515625 656.15 588.25
L 655.85 591.65
Q 656.3501953125 590.9984375 656.85 590.35
L 659.8 586.4
Q 660.4826171875 585.474609375 661.15 584.55 661.4771484375 584.1001953125 661.8 583.65 661.8384765625 583.60078125 661.85 583.55
L 665.1 579
Q 665.325390625 578.675 665.55 578.35
L 666.65 576.7
Q 667.0611328125 576.1501953125 667.45 575.55
L 668.9 573.4
Q 669.5310546875 572.451171875 670.15 571.5
L 657.3 563.1
M 714.55 443.45
Q 714.0794921875 444.066015625 713.6 444.65
L 709.85 449.1 709.7 449.25 708.35 450.9
Q 708.189453125 451.084765625 708 451.25
L 707.55 451.75
Q 707.5189453125 451.866796875 707.45 451.95
L 707 452.45 703.25 456.55 702.8 457.1
Q 702.6654296875 457.2439453125 702.5 457.35
L 702.15 457.8
Q 701.9990234375 457.9578125 701.85 458.1
L 701.4 458.55
Q 701.2271484375 458.7849609375 701 459
L 700.45 459.6
Q 699.9271484375 460.151171875 699.4 460.7
L 698.25 461.9 713.3 464.85 714.4 458.7
Q 714.570703125 457.8775390625 714.7 457
L 714.9 455.9
Q 715.263671875 453.65390625 715.6 451.4
L 715.7 450.7 715.7 450.6 717.05 440.35 714.55 443.45
M 714.65 342.5
L 699.5 345.1 703.9 350.6
Q 704.267578125 351.0974609375 704.6 351.55
L 705.7 352.95 705.7 353
Q 706.4419921875 353.9484375 707.15 354.9
L 707.85 355.85
Q 708.471484375 356.6873046875 709.1 357.55 709.2263671875 357.7251953125 709.35 357.9
L 715.4 366.55
Q 715.640625 366.9125 715.85 367.25
L 716.1 367.6
Q 716.7423828125 368.5671875 717.35 369.5
L 718.2 370.8
Q 718.0830078125 369.3744140625 717.95 367.95
L 717.55 364.15
Q 717.2533203125 360.83359375 716.85 357.5 716.8021484375 357.125 716.75 356.75 716.41796875 354.151171875 716.05 351.55
L 715.95 350.9 715.65 348.95 715.6 348.6 715.6 348.3 715.4 347.05
Q 715.140234375 345.437890625 714.85 343.8
L 714.65 342.5
M 648.05 201.55
Q 648.094921875 201.830859375 648.15 202.1
L 648.45 203.6 648.45 203.85 648.5 203.95 648.5 204.05
Q 648.525 204.0875 648.5 204.1
L 650.2 214
Q 650.2337890625 214.26171875 650.25 214.5 650.61171875 216.804296875 650.9 219.3
L 651.1 220.65
Q 651.221875 221.6984375 651.35 222.75
L 651.65 225.6
Q 651.7681640625 226.658203125 651.85 227.7
L 652 229 664.6 220.2 661.95 216.5
Q 661.5751953125 215.958984375 661.15 215.4
L 655.55 207.9
Q 655.425 207.7625 655.3 207.6
L 653.7 205.55
Q 653.3296875 205.0720703125 652.95 204.6
L 647.25 197.6 647.9 200.95 648.05 201.55 Z"/>

<path fill="#FAAC56" stroke="none" d="
M 613.5 616.4
L 611.1 618.7 610.85 619 610.7 619.1 608.15 621.55 608 621.65 607.9 621.8 595.45 633
Q 592.35 635.65 586.05 640.75
L 576.45 648.05 579.6 647.7
Q 580.413671875 647.6021484375 581.2 647.5
L 582.25 647.35
Q 582.76015625 647.316796875 583.25 647.25 587.171484375 646.7361328125 591.15 646.1
L 595.25 645.4 598.45 644.8 598.9 644.75
Q 598.9873046875 644.73671875 599.05 644.7
L 600.65 644.4
Q 601.7345703125 644.2 602.8 643.95
L 607.3 643.05
Q 608.4423828125 644.363671875 609.55 645.65 609.7435546875 645.8671875 609.9 646.05
L 623.7 661.95
Q 628.35625 657.894140625 632.85 653.7 637.65 649.3 641.7 645.25
L 615 641.5 614.55 628.7 614.5 628.35 614.1 623.05 614.05 622.75 614.05 622.4 613.5 616.4
M 459.55 701.7
Q 460.149609375 701.218359375 460.75 700.7
L 462.4 699.3
Q 462.8341796875 698.9099609375 463.25 698.5
L 464.15 697.75 452.25 699.9
Q 447.05 700.75 440.3 701.6 434.05 702.3 428.2 702.8 422.8 703.25 416.05 703.6
L 418.95 707.2
Q 426.25 715.05 433.3 721.75 427.6 730.65 420.6 740.25
L 417.9 743.95
Q 424.75 743.6 430.2 743.15 435.75 742.75 442.45 742
L 440.05 720.6
Q 439.8509765625 718.8443359375 439.65 717.1
L 444.2 713.8
Q 445.8728515625 712.6169921875 447.5 711.35
L 454.2 706.1
Q 454.8337890625 705.6359375 455.4 705.15 456.126171875 704.5794921875 456.8 704
L 458.45 702.65
Q 459.001953125 702.1884765625 459.55 701.7
M 386.4 708.7
L 386.5 708.55 390.5 703.85 366.45 702.35
Q 359.8 701.7 354.65 700.95
L 342.9 699.1 348.05 703.4
Q 348.6849609375 703.9361328125 349.35 704.45
L 350.95 705.75
Q 351.307421875 706.0384765625 351.65 706.3
L 354.35 708.45 355.15 709.05 357.4 710.75
Q 357.7609375 710.99765625 358.1 711.25
L 358.45 711.5
Q 359.7107421875 712.4158203125 361.6 713.8
L 362 714.1 362 714.1 362.25 714.25
Q 362.2767578125 714.2734375 362.3 714.3 362.5751953125 714.4955078125 362.85 714.65
L 364.05 715.5
Q 364.1970703125 715.642578125 364.35 715.75
L 365.7 716.7
Q 366.1265625 716.9779296875 366.5 717.25
L 367.4 717.85
Q 367.2341796875 719.5939453125 367.05 721.35
L 366.9 722.75
Q 366.1671875 731.031640625 365.4 739.3 365.2734375 740.721484375 365.15 742.15 365.1326171875 742.3529296875 365.1 742.55
L 365.1 742.8 389.2 744.25 373.75 722.35 386.4 708.7
M 212.05 639.25
Q 207.1 635.25 202.9 631.55 198.6 627.9 193.95 623.55
L 193.4 628.1
Q 192.85 637.3 192.85 648.4 182.2 650.7 170.9 652.45
L 166.45 653.1
Q 170.4 656.8 175.4 661.2 178.45 663.85 184.65 669.05
L 200.5 649.65 215.9 651.95
Q 216.587890625 652.0359375 217.25 652.1
L 218 652.2
Q 221.2982421875 652.592578125 224.6 652.9
L 227.1 653.1
Q 227.5396484375 653.16640625 227.95 653.2 228.3783203125 653.2423828125 228.75 653.25 229.489453125 653.330859375 230.2 653.35
L 231.1 653.45 221.45 646.55
Q 216.5 642.8 212.05 639.25
M 146.75 570.05
Q 146.810546875 570.90859375 146.85 571.75
L 146.9 572.55
Q 146.9478515625 572.867578125 146.95 573.2 147.14921875 575.553125 147.35 578.05
L 147.9 583.45
Q 147.962109375 583.808203125 148 584.15
L 149.55 595.55 149.6 595.75 149.7 596.55 150.15 599.35
Q 148.7990234375 600.455078125 147.45 601.55 147.2236328125 601.7359375 147 601.9
L 146.1 602.6
Q 146.00078125 602.7255859375 145.85 602.8 145.8017578125 602.8884765625 145.7 602.95 139.6154296875 607.9556640625 133.5 612.95
L 131.45 614.6 130.8 615.2
Q 134.95 620.25 138.45 624.3
L 143.7 630.15 143.8 630.3 146.35 633.05 151.35 606.95 169.5 606.25 169.8 606.2 176.1 605.75 173.5 602.95 173.4 602.8 168.15 596.85
Q 164.55 592.75 160.6 587.85 157.25 583.65 153.45 578.65
L 146.7 569.15 146.75 570.05
M 96.85 424.95
Q 96.35 417.25 96.2 413.2
L 92.6 416
Q 85.1 422.6 77.85 429.7 67.9 423.4 59.5 417.35
L 55.85 414.7
Q 56 418.65 56.5 426.55 57.1 434.45 57.5 438.4
L 82.4 435.9 91.65 448.15
Q 92.3919921875 449.096484375 93.1 450
L 98 455.9 99.5 457.65 99.6 457.8 101.3 459.7 99.8 450.7 99.7 450.35 99.4 448.2
Q 98.55 442.3 97.9 436.6 97.3 430.9 96.85 424.95
M 56.95 367.9
Q 56.35 375.9 56.15 380.1
L 55.7 392.3 77.45 376.45 96.1 393.3 96.15 389.55 96.2 389.35 97.2 371.15 97.4 368.9
Q 98.6 356.15 100.5 345 100.349609375 345.178515625 100.15 345.35
L 96.45 349.9
Q 96.151171875 350.3583984375 95.8 350.8
L 84.25 366.5
Q 84.005859375 366.8796875 83.75 367.2
L 83.55 367.5 82.9 368.45 81.9 370 57.75 367.95 56.95 367.9
M 176.3 194.05
L 171.7 193.5
Q 161.15 193.05 151.35 193.1 149.1 182.6 147.4 171.05
L 146.75 166.55
Q 142.6 171.05 138.55 175.65 135.85 178.7 130.65 185
L 131.15 185.4 150.05 200.85 149.65 202.85
Q 149.540625 203.68984375 149.4 204.5
L 149.35 204.65
Q 149.1578125 205.9609375 148.95 207.25
L 148.75 208.55
Q 148.57890625 209.653125 148.4 210.75
L 147.85 214.7
Q 147.668359375 216.2150390625 147.45 217.7
L 147.4 218.45
Q 147.2712890625 219.5259765625 147.15 220.6 146.84375 223.355078125 146.6 226.1
L 146.5 227.05
Q 146.4244140625 227.97578125 146.35 228.9 146.28046875 229.8388671875 146.2 230.75
L 146.15 231.7 153.1 221.9
Q 156.15 217.75 160.45 212.35 163.5 208.55 168.2 203.1 172.8 197.8 176.3 194.05
M 219.6 148.1
Q 218.521875 148.2220703125 217.4 148.3
L 215.65 148.5 214.75 148.6 200.25 150.5 184.4 131.1
Q 178.5 136 175.6 138.55
L 169.95 143.6 169.8 143.7 167.1 146.2 192.85 151.5
Q 192.85 151.55 193 156.5
L 193.8 169.75 193.85 169.9 194.4 175.95 197.1 173.45 197.25 173.35 211.7 160.95
Q 216.8 156.9 220.65 154
L 229.8 147.4
Q 226.46796875 147.6126953125 224.3 147.75
L 223.55 147.8
Q 222.9099609375 147.8498046875 222.25 147.9
L 219.6 148.1
M 355.15 58.25
L 355.15 58.25 358.15 83.1 357 83.95
Q 356.13125 84.6419921875 355.25 85.3 354.74140625 85.7220703125 354.2 86.1 352.83203125 87.228125 351.45 88.35
L 347.1 91.95
Q 345.5921875 93.204296875 344.1 94.45 343.8662109375 94.6998046875 343.6 94.9
L 343.35 95.15
Q 342.5623046875 95.8392578125 341.75 96.5
L 340.75 97.45
Q 338.5740234375 99.4087890625 336.45 101.4
L 335.5 102.3 357.8 98.6
Q 363.45 97.95 369.05 97.4 375.45 96.8 380.4 96.55
L 377.65 93
Q 371.35 85.8 364.05 78.45 369.45 69.2 375.65 59.9
L 378.15 56.25
Q 374.15 56.45 366.65 57.05 361.1146484375 57.5486328125 355.15 58.25
M 418.15 56.1
L 418 56.05 414.3 55.9 428.85 77.85 416.6 91.5 416.55 91.6 416.4 91.7 412.65 96.25 416.3 96.4 416.5 96.45 419.25 96.55 435.6 97.9
Q 441.75 98.55 446.95 99.3
L 458.15 101.1
Q 455.85 99 452.75 96.4
L 451.55 95.4 451.55 95.35
Q 450.6234375 94.59296875 449.65 93.8
L 449.25 93.45 446.1 90.85 445.8 90.65
Q 445.373046875 90.2990234375 444.9 89.95
L 444.7 89.75
Q 444.0865234375 89.2982421875 443.45 88.8
L 438.85 85.3 438.2 84.85
Q 437.8412109375 84.5634765625 437.45 84.25
L 436.8 83.8 434.9 82.4 437.35 57.45 422.2 56.3 421.85 56.25 418.15 56.1
M 619.55 134.45
Q 616.6 131.95 610.6 127.15
L 610 127.85 595.05 146.8 588.3 145.9
Q 587.880859375 145.8525390625 587.4 145.8
L 568.95 144.3
Q 567.1548828125 144.215234375 565.35 144.15
L 574.7 150.65
Q 579.15 153.8 583.8 157.45 586.8 159.8 592.7 164.6 597.5 168.65 601.35 172.1
L 601.9 167.6
Q 602.45 158.25 602.55 147.7 613 145 623.95 142.9
L 628.3 142.05
Q 624.4 138.55 619.55 134.45
M 657.3 565.65
L 657.3 563.1 651.3 572
Q 648.7 575.7 644.95 580.65 642.8 583.5 638.3 589.1 634.45 593.8 631.35 597.35
L 635.75 597.95
Q 645.45 598.7 655.25 598.85 658.7 610.6 660.8 619.65
L 661.8 623.9
Q 665.4 619.8 668.85 615.5 671.7 612.1 675.7 606.95
L 675.3 606.6 655.85 591.65 656.15 588.25
Q 656.23125 587.5603515625 656.3 586.85
L 656.7 581.05
Q 656.955078125 577.355078125 657.1 573.7
L 657.1 573.05
Q 657.1369140625 572.6876953125 657.15 572.3
L 657.25 567.2
Q 657.284765625 566.4365234375 657.3 565.65
M 743.3 428.55
L 743.75 421.45 721.65 434.75 708.4 423.1 708.2 422.9 708.05 422.85 707.95 422.7 703.45 419.05 703.3 422 703.25 422.35 702.7 429.95
Q 702 437.15 701.55 440.7 701 445.45 700.1 451.35
L 698.25 461.9 699.4 460.7
Q 699.9271484375 460.151171875 700.45 459.6
L 701 459
Q 701.2271484375 458.7849609375 701.4 458.55
L 701.85 458.1
Q 701.9990234375 457.9578125 702.15 457.8
L 702.5 457.35 703.25 456.55 707 452.45 707.55 451.75 708 451.25
Q 708.189453125 451.084765625 708.35 450.9
L 709.7 449.25 709.85 449.1 713.6 444.65
Q 714.0794921875 444.066015625 714.55 443.45
L 717.05 440.35
Q 718.794140625 440.5529296875 720.55 440.75 720.93671875 440.797265625 721.3 440.85
L 741.95 443.2
Q 742.55 437.85 743 432.3
L 743.3 428.9 743.3 428.55
M 709.35 357.9
Q 709.2263671875 357.7251953125 709.1 357.55 708.471484375 356.6873046875 707.85 355.85
L 707.15 354.9
Q 706.4419921875 353.9484375 705.7 353
L 705.7 352.95 704.6 351.55
Q 704.267578125 351.0974609375 703.9 350.6
L 699.5 345.1
Q 701.6 357.25 702.65 369.65
L 703.55 382.05
Q 703.9 388.95 703.95 394.5
L 707.65 391.65
Q 715.9 384.2 722.6 377.45 731.3 383.5 740.75 391
L 744.35 393.9
Q 744.15 385.5 743.95 381.35 743.700390625 375.757421875 743.1 368.75
L 743.1 368.75 718.2 370.8 717.35 369.5
Q 716.7423828125 368.5671875 716.1 367.6
L 715.85 367.25
Q 715.640625 366.9125 715.4 366.55
L 709.35 357.9
M 666.45 181.55
Q 662.3 176.6 658.25 172
L 649.75 162.8 645.75 189.7 620.4 190.55 623.15 193.5 623.3 193.6 637.05 209.3
Q 641.55 214.8 644.75 219
L 652 229 651.85 227.7
Q 651.7681640625 226.658203125 651.65 225.6
L 651.35 222.75
Q 651.221875 221.6984375 651.1 220.65
L 650.9 219.3
Q 650.61171875 216.804296875 650.25 214.5 650.2337890625 214.26171875 650.2 214
L 648.5 204.1
Q 648.525 204.0875 648.5 204.05
L 648.5 203.95 648.45 203.85 648.45 203.6 648.15 202.1
Q 648.094921875 201.830859375 648.05 201.55
L 647.9 201 647.9 200.95 647.25 197.6 650.4 194.95 650.45 194.9 666.45 181.55 Z"/>

<path fill="#FDC689" stroke="none" d="
M 485.4 708.55
Q 476.4533203125 710.934375 467.2 712.8
L 464.35 713.35
Q 464.1119140625 713.395703125 463.85 713.45
L 462.95 713.6
Q 461.9396484375 713.8162109375 460.9 714 459.6541015625 714.222265625 458.4 714.4
L 443.85 716.6
Q 443.113671875 716.6939453125 442.35 716.75
L 439.65 717.1
Q 439.8509765625 718.8443359375 440.05 720.6
L 442.45 742 444.45 759.55
Q 471.35 756.45 496.4 749.8 522.1 742.95 546.5 732.15
L 570.35 720.45
Q 576.55 717.05 581.9 713.9 588.05 710.25 593.15 706.95 614.85 693 635.3 675.25
L 623.7 661.95 609.9 646.05
Q 609.7435546875 645.8671875 609.55 645.65 608.4423828125 644.363671875 607.3 643.05 606.880078125 643.4125 606.45 643.75
L 593.65 654.3
Q 589.25 657.75 585.5 660.45
L 585.45 660.4
Q 577.83046875 666.03359375 570.05 671.05 565.2 674.2 560.15 677.2 554.75 680.35 550.05 682.9
L 529.2 693.15
Q 523.6 695.6 518.5 697.65
L 499.35 704.45 499 704.6 496.55 705.35
Q 489.15 707.55 485.4 708.55
M 200.5 649.65
L 184.65 669.05 173.5 682.7
Q 193.95 699.4 215.9 712.65 238.3 726.1 262.55 736.05 286.45 745.8 312.25 752 337 757.95 363.45 760.4
L 365.1 742.8 365.1 742.55
Q 365.1326171875 742.3529296875 365.15 742.15 365.2734375 740.721484375 365.4 739.3 366.1671875 731.031640625 366.9 722.75
L 367.05 721.35
Q 367.2341796875 719.5939453125 367.4 717.85
L 363.75 717.5
Q 362.8236328125 717.40078125 361.9 717.3
L 353.25 716.25
Q 353.1498046875 716.2384765625 353.05 716.2
L 352.6 716.2 340.2 714.25
Q 331.03359375 712.6267578125 322.2 710.5 299.75 705.15 278.7 696.55 257.7 687.9 237.9 676.05 230.060546875 671.322265625 222.45 666.1 221.397265625 665.3806640625 220.35 664.65
L 217.3 662.5
Q 216.505078125 661.93203125 215.7 661.35
L 215.25 661.05 209.6 656.8
Q 209.2681640625 656.5705078125 208.9 656.3 208.81484375 656.2349609375 208.7 656.15 208.4544921875 655.945703125 208.2 655.75 207.0962890625 654.90703125 206 654.05
L 205.85 653.95 205.5 653.65
Q 205.1494140625 653.3759765625 204.8 653.1 204.0736328125 652.5279296875 203.35 651.95 203.0486328125 651.7146484375 202.75 651.45 202.7013671875 651.4359375 202.65 651.4 201.933203125 650.8185546875 201.2 650.2
L 200.5 649.65
M 86.2 462.5
L 86.2 462.5 82.4 435.9 57.5 438.4 39.95 440.2
Q 42.55 466 48.6 490.4 54.75 515.25 64.55 539.05 74.25 562.4 87.7 584.75 100.9 606.5 117.1 626.35
L 131.45 614.6 133.5 612.95
Q 139.6154296875 607.9556640625 145.7 602.95 145.8017578125 602.8884765625 145.85 602.8 146.00078125 602.7255859375 146.1 602.6
L 147 601.9
Q 147.2236328125 601.7359375 147.45 601.55 148.7990234375 600.455078125 150.15 599.35 149.2951171875 598.3037109375 148.45 597.25 147.18984375 595.6818359375 145.95 594.1 142.72890625 589.9845703125 139.65 585.75
L 138.3 583.9
Q 138.1716796875 583.7267578125 138.05 583.55
L 134.4 578.35 134.35 578.25 134.05 577.85
Q 128.9265625 570.3908203125 124.25 562.65 112.7 543.55 104 522.7 95.3 501.6 90.05 480.15 87.90234375 471.47734375 86.2 462.5
M 131.15 185.4
L 116.95 173.85
Q 100.05 194.7 86.75 216.85 73.1 239.75 63.25 264.15 53.35 288.95 47.45 314.55 41.65 339.6 39.35 366.4
L 57.75 367.95 81.9 370 82.15 367.2
Q 82.2353515625 366.2814453125 82.3 365.35
L 82.3 365.25 83.15 357.9
Q 83.1974609375 357.498046875 83.25 357.05
L 84.2 350
Q 84.2224609375 349.812109375 84.25 349.6
L 85.35 342.45 85.35 342.45
Q 86.9546875 333.1826171875 89.05 324.15 90.1 319.5 91.85 312.95
L 98.8 290.9
Q 101.2 284.35 102.9 280.1 111.5 258.7 123.4 238.75 128.1400390625 230.8158203125 133.45 223.05
L 139.3 214.75
Q 139.936328125 213.88828125 140.55 213 141.0162109375 212.45234375 141.45 211.85
L 141.9 211.25 141.95 211.15 150.05 200.85 131.15 185.4
M 355.15 58.25
L 355.15 58.25 353.05 40.7
Q 328.25 43.65 304.5 49.9 280 56.4 257.55 66.05 234.95 75.7 213.45 88.8 192.65 101.55 173.25 117.45
L 184.4 131.1 200.25 150.5
Q 200.9244140625 149.9486328125 201.6 149.4
L 201.95 149.1
Q 202.2984375 148.83515625 202.65 148.55 203.1587890625 148.144921875 203.65 147.75
L 205.35 146.4
Q 205.4244140625 146.3369140625 205.5 146.25 206.0689453125 145.8294921875 206.65 145.4 207.125 145.025 207.6 144.65 207.823828125 144.4732421875 208.05 144.3 208.7720703125 143.745703125 209.5 143.2 209.7375 143.025 209.95 142.85 210.283203125 142.6095703125 210.6 142.35
L 210.9 142.1 213.6 140.1
Q 214.431640625 139.5310546875 215.25 138.95
L 216.7 137.9
Q 217.1708984375 137.556640625 217.65 137.2
L 221.1 134.8
Q 228.2958984375 129.7935546875 235.75 125.2 254.65 113.65 274.3 105.3 294.35 96.75 315.4 91.2 324.4009765625 88.8173828125 333.75 86.95
L 337.85 86.15
Q 337.8875 86.175 337.9 86.15
L 338.85 86
Q 339.409765625 85.8935546875 339.95 85.8
L 343.1 85.25
Q 343.9322265625 85.1158203125 344.75 85
L 354.7 83.55
Q 355.16171875 83.48359375 355.6 83.4
L 358.15 83.1 355.15 58.25
M 488.7 92.35
L 509.5 98.95
Q 514.4 100.7 519.75 102.85 539.75 110.85 558.95 122.05 566.5826171875 126.562109375 573.85 131.4
L 584.7 138.9 595.05 146.8 610 127.85 621.5 113.25
Q 601.5 97.5 580.5 85.2 558.8 72.55 535.65 63.25 512.45 53.9 488.05 48.1 464.25 42.35 439.1 39.9
L 437.35 57.45 434.9 82.4 437.5 82.65
Q 437.95 82.7029296875 438.4 82.75 439.2755859375 82.85 440.15 82.95 440.5755859375 82.9974609375 441 83.05 441.225390625 83.0732421875 441.45 83.1 441.65 83.1251953125 441.85 83.15 442.75 83.2625 443.65 83.35 444.0884765625 83.4189453125 444.5 83.45
L 445.1 83.55
Q 445.5130859375 83.599609375 445.9 83.65
L 447.85 83.9 448.05 83.95
Q 448.237890625 83.971875 448.4 84
L 452.6 84.6
Q 453.653125 84.7548828125 454.7 84.9
L 456.15 85.15
Q 457.3259765625 85.3484375 458.5 85.55
L 460.4 85.9
Q 469.3265625 87.484375 478.1 89.6 484.1 91.05 488.7 92.35
M 759.45 445.25
L 741.95 443.2 721.3 440.85
Q 720.93671875 440.797265625 720.55 440.75 718.794140625 440.5529296875 717.05 440.35
L 715.7 450.6 715.7 450.7 715.6 451.4
Q 715.263671875 453.65390625 714.9 455.9
L 714.7 457
Q 714.570703125 457.8775390625 714.4 458.7
L 713.3 464.85
Q 711.7107421875 473.0072265625 709.7 481.05 704.6 501.35 696.95 520.3 689.3 539.3 678.85 557.35 674.7650390625 564.45234375 670.15 571.5 669.5310546875 572.451171875 668.9 573.4
L 667.45 575.55
Q 667.0611328125 576.1501953125 666.65 576.7
L 665.55 578.35
Q 665.325390625 578.675 665.1 579
L 661.85 583.55
Q 661.8384765625 583.60078125 661.8 583.65 661.4771484375 584.1001953125 661.15 584.55 660.4826171875 585.474609375 659.8 586.4
L 656.85 590.35
Q 656.3501953125 590.9984375 655.85 591.65
L 675.3 606.6 689.65 617.7
Q 703.9 599.25 715.85 578.7 727.6 558.3 736.55 536.3 745.3 514.6 751.1 491.4 756.75 469.05 759.45 445.25
M 680 170.2
L 666.45 181.55 650.45 194.9 650.4 194.95 647.25 197.6 652.95 204.6
Q 653.3296875 205.0720703125 653.7 205.55
L 655.3 207.6
Q 655.425 207.7625 655.55 207.9
L 661.15 215.4
Q 661.5751953125 215.958984375 661.95 216.5
L 664.6 220.2
Q 670.0716796875 228.057421875 675.05 236.2 687.6 256.8 696.5 278.55 698.45 283.3 700.75 289.6
L 707.95 312.25
Q 709 316.05 710.9 323.75 713.04453125 333.089453125 714.65 342.5
L 714.85 343.8
Q 715.140234375 345.437890625 715.4 347.05
L 715.6 348.3 715.6 348.6
Q 715.7953125 349.7521484375 715.95 350.9
L 716.05 351.55
Q 716.41796875 354.151171875 716.75 356.75 716.8021484375 357.125 716.85 357.5 717.2533203125 360.83359375 717.55 364.15
L 717.95 367.95
Q 718.0830078125 369.3744140625 718.2 370.8
L 743.1 368.75 743.1 368.75 760.7 367.35
Q 759.65 354 757.55 340.6
L 752.45 314.05
Q 746.2 287.4 736 262.4 725.85 237.5 711.5 214
L 696.55 191.45
Q 692.35 185.65 688.45 180.7
L 682.45 173.1 682.15 172.8 680 170.2 Z"/>
</g>
</defs>

<g transform="matrix( 0.0434112548828125, 0, 0, 0.0434112548828125, 0,0.15) ">
<g transform="matrix( 1, 0, 0, 1, 0,0) ">
<use xlink:href="#___0_Layer0_0_FILL"/>
</g>
</g>

<g transform="matrix( 0.041778564453125, 0, 0, 0.041778564453125, -0.7,-0.55) ">
<use xlink:href="#Layer3_0_STROKES_1_FILL"/>
</g>

<g transform="matrix( 0.065887451171875, 0, 0, 0.05328369140625, 5.05,9.75) ">
<g transform="matrix( 1, 0, 0, 1, -1.6,2) ">
<clipPath id="Mask_Mask_1">
<rect x="1.6" y="-2" width="226.4" height="325.85" fill="#FFFFFF" stroke="none"/>
</clipPath>

<text clip-path="url(#Mask_Mask_1)" writing-mode="lr"><tspan x="3.6" y="257.75" baseline-shift="0%" font-family="Old English Five" font-size="188" fill="#F0CEB2" xml:space="preserve">E</tspan></text>
</g>
</g>

<g transform="matrix( 0.0633392333984375, 0, 0, 0.0505828857421875, 9.2,2.35) ">
<g transform="matrix( 1, 0, 0, 1, 2,2) ">
<clipPath id="Mask_Mask_2">
<rect x="-2" y="-2" width="206.3" height="325.85" fill="#FFFFFF" stroke="none"/>
</clipPath>

<text clip-path="url(#Mask_Mask_2)" writing-mode="lr"><tspan x="0" y="257.75" baseline-shift="0%" font-family="Old English Five" font-size="188" fill="#F0CEB2" xml:space="preserve">O</tspan></text>
</g>
</g>

<g transform="matrix( 0.0471649169921875, 0, 0, 0.0537109375, 12.95,9.6) ">
<g transform="matrix( 1, 0, 0, 1, 2,2) ">
<clipPath id="Mask_Mask_3">
<rect x="-2" y="-2" width="254.05" height="325.85" fill="#FFFFFF" stroke="none"/>
</clipPath>

<text clip-path="url(#Mask_Mask_3)" writing-mode="lr"><tspan x="0" y="257.75" baseline-shift="0%" font-family="Old English Five" font-size="188" fill="#F0CEB2" xml:space="preserve">M</tspan></text>
</g>
</g>
</svg>
